<svg width="263" height="65" viewBox="0 0 263 65" fill="none" xmlns="http://www.w3.org/2000/svg">
<path d="M104.608 19.304L92.656 53H82.384L70.432 19.304H79.168L87.52 44.744L95.92 19.304H104.608ZM116.247 25.88V32.696H127.239V39.032H116.247V46.424H128.679V53H108.039V19.304H128.679V25.88H116.247ZM118.119 13.448L110.679 17.384V11.72L118.119 7.928L125.559 11.72V17.384L118.119 13.448ZM164.151 53H155.943L142.215 32.216V53H134.007V19.304H142.215L155.943 40.184V19.304H164.151V53ZM178.165 19.304V39.464C178.165 41.48 178.661 43.032 179.653 44.12C180.645 45.208 182.101 45.752 184.021 45.752C185.941 45.752 187.413 45.208 188.437 44.12C189.461 43.032 189.973 41.48 189.973 39.464V19.304H198.181V39.416C198.181 42.424 197.541 44.968 196.261 47.048C194.981 49.128 193.253 50.696 191.077 51.752C188.933 52.808 186.533 53.336 183.877 53.336C181.221 53.336 178.837 52.824 176.725 51.8C174.645 50.744 172.997 49.176 171.781 47.096C170.565 44.984 169.957 42.424 169.957 39.416V19.304H178.165ZM216.137 53.336C213.673 53.336 211.465 52.936 209.513 52.136C207.561 51.336 205.993 50.152 204.809 48.584C203.657 47.016 203.049 45.128 202.985 42.92H211.721C211.849 44.168 212.281 45.128 213.017 45.8C213.753 46.44 214.713 46.76 215.897 46.76C217.113 46.76 218.073 46.488 218.777 45.944C219.481 45.368 219.833 44.584 219.833 43.592C219.833 42.76 219.545 42.072 218.969 41.528C218.425 40.984 217.737 40.536 216.905 40.184C216.105 39.832 214.953 39.432 213.449 38.984C211.273 38.312 209.497 37.64 208.121 36.968C206.745 36.296 205.561 35.304 204.569 33.992C203.577 32.68 203.081 30.968 203.081 28.856C203.081 25.72 204.217 23.272 206.489 21.512C208.761 19.72 211.721 18.824 215.369 18.824C219.081 18.824 222.073 19.72 224.345 21.512C226.617 23.272 227.833 25.736 227.993 28.904H219.113C219.049 27.816 218.649 26.968 217.913 26.36C217.177 25.72 216.233 25.4 215.081 25.4C214.089 25.4 213.289 25.672 212.681 26.216C212.073 26.728 211.769 27.48 211.769 28.472C211.769 29.56 212.281 30.408 213.305 31.016C214.329 31.624 215.929 32.28 218.105 32.984C220.281 33.72 222.041 34.424 223.385 35.096C224.761 35.768 225.945 36.744 226.937 38.024C227.929 39.304 228.425 40.952 228.425 42.968C228.425 44.888 227.929 46.632 226.937 48.2C225.977 49.768 224.569 51.016 222.713 51.944C220.857 52.872 218.665 53.336 216.137 53.336Z" fill="white"/>
<path d="M21.4229 35.4983H2.18741C0.984333 35.4983 0 36.4467 0 37.6057V41.8205C0 42.9795 0.984333 43.9279 2.18741 43.9279H21.628C23.8017 43.9279 25.8387 45.3635 26.1942 47.4314C26.6453 50.0656 24.54 52.3574 21.8741 52.3574C19.9464 52.3574 18.3059 51.1456 17.718 49.4729C17.4309 48.6431 16.5423 48.1426 15.64 48.1426H11.1558C9.81598 48.1426 8.73595 49.3017 8.98203 50.5661C10.1578 56.3746 15.4896 60.7869 21.8604 60.7869C29.6667 60.7869 35.9008 54.1882 34.8755 46.4831C34.0415 40.1082 28.0808 35.4983 21.4229 35.4983ZM2.18741 31.2836H48.1229C56.2847 31.2836 62.7239 24.0658 60.9466 15.9129C59.9076 11.1449 55.9019 7.28576 50.9529 6.28475C43.379 4.7569 36.5844 9.56436 35.2446 16.229C34.9848 17.4934 36.0785 18.6393 37.4046 18.6393H41.8888C42.8048 18.6393 43.6798 18.1388 43.9669 17.309C44.5547 15.6363 46.1953 14.4245 48.1229 14.4245C50.7752 14.4245 52.8942 16.7163 52.4431 19.3505C52.0876 21.4184 50.0642 22.854 47.8768 22.854H2.18741C0.984333 22.854 0 23.8024 0 24.9614V29.1762C0 30.3353 0.984333 31.2836 2.18741 31.2836ZM54.6851 35.4983H33.3169C35.9555 37.6847 37.8558 40.6087 38.7581 43.9279H54.6851C58.308 43.9279 61.2474 46.7597 61.2474 50.25C61.2474 53.7404 58.308 56.5722 54.6851 56.5722C52.238 56.5722 50.1326 55.2682 48.9979 53.3584C48.6014 52.6998 47.8085 52.3574 47.0155 52.3574H42.3947C40.9045 52.3574 39.7971 53.7799 40.3029 55.1365C42.7364 61.8011 49.9412 66.3056 57.9936 64.6592C63.6262 63.5133 68.2607 59.18 69.5732 53.7667C71.911 44.1254 64.3234 35.4983 54.6851 35.4983Z" fill="white"/>
</svg>
